<?xml version="1.0" encoding="UTF-8" standalone="no"?>
<svg
   xmlns:dc="http://purl.org/dc/elements/1.1/"
   xmlns:cc="http://creativecommons.org/ns#"
   xmlns:rdf="http://www.w3.org/1999/02/22-rdf-syntax-ns#"
   xmlns:svg="http://www.w3.org/2000/svg"
   xmlns="http://www.w3.org/2000/svg"
   xmlns:sodipodi="http://sodipodi.sourceforge.net/DTD/sodipodi-0.dtd"
   xmlns:inkscape="http://www.inkscape.org/namespaces/inkscape"
   version="1.1"
   width="361.7mm"
   height="159.7mm"
   viewBox=" 0 0 1281.615227 565.8666069999999"
   id="svg26"
   sodipodi:docname="caja dia 6.svg"
   inkscape:version="1.0.2 (394de47547, 2021-03-26)">
  <metadata
     id="metadata32">
    <rdf:RDF>
      <cc:Work
         rdf:about="">
        <dc:format>image/svg+xml</dc:format>
        <dc:type
           rdf:resource="http://purl.org/dc/dcmitype/StillImage" />
        <dc:title></dc:title>
      </cc:Work>
    </rdf:RDF>
  </metadata>
  <defs
     id="defs30" />
  <sodipodi:namedview
     pagecolor="#ffffff"
     bordercolor="#666666"
     borderopacity="1"
     objecttolerance="10"
     gridtolerance="10"
     guidetolerance="10"
     inkscape:pageopacity="0"
     inkscape:pageshadow="2"
     inkscape:window-width="1853"
     inkscape:window-height="1025"
     id="namedview28"
     showgrid="false"
     inkscape:zoom="0.60466311"
     inkscape:cx="605.7109"
     inkscape:cy="465.60388"
     inkscape:window-x="67"
     inkscape:window-y="27"
     inkscape:window-maximized="1"
     inkscape:current-layer="svg26" />
  <!-- Front-->
  <g
     transform="translate(13.125009,15.00001)"
     id="g4"
     style="fill:none;stroke:#ff0000;stroke-opacity:1;stroke-width:0.09375008;stroke-miterlimit:4;stroke-dasharray:none">
    <polygon
       style="fill:none;stroke:#ff0000;stroke-width:0.09375008;stroke-opacity:1;stroke-miterlimit:4;stroke-dasharray:none"
       points="125.7875,0 125.7875,10.62993 147.04737,10.62993 147.04737,0 168.30723,0 168.30723,10.62993 189.56708,10.62993 189.56708,0 210.82694,0 210.82694,10.62993 232.0868,10.62993 232.0868,0 253.34667,0 253.34667,10.62993 274.60653,10.62993 274.60653,0 295.86639,0 295.86639,10.62993 317.12624,10.62993 317.12624,0 338.3861,0 338.3861,10.62993 359.64596,10.62993 359.64596,0 380.90582,0 380.90582,10.62993 411.90979,10.62993 411.90979,0 442.91375,0 442.91375,26.574825 432.28382,26.574825 432.28382,53.14965 442.91375,53.14965 442.91375,74.40951 432.28382,74.40951 432.28382,95.66937 442.91375,95.66937 442.91375,116.92923 432.28382,116.92923 432.28382,143.50405 442.91375,143.50405 442.91375,170.07888 411.90979,170.07888 411.90979,159.44895 380.90582,159.44895 380.90582,170.07888 359.64596,170.07888 359.64596,159.44895 338.3861,159.44895 338.3861,170.07888 317.12624,170.07888 317.12624,159.44895 295.86639,159.44895 295.86639,170.07888 274.60653,170.07888 274.60653,159.44895 253.34667,159.44895 253.34667,170.07888 232.0868,170.07888 232.0868,159.44895 210.82694,159.44895 210.82694,170.07888 189.56708,170.07888 189.56708,159.44895 168.30723,159.44895 168.30723,170.07888 147.04737,170.07888 147.04737,159.44895 125.7875,159.44895 125.7875,170.07888 104.52765,170.07888 104.52765,159.44895 83.267785,159.44895 83.267785,170.07888 62.007925,170.07888 62.007925,159.44895 31.003963,159.44895 31.003963,170.07888 0,170.07888 0,143.50405 10.62993,143.50405 10.62993,116.92923 0,116.92923 0,95.66937 10.62993,95.66937 10.62993,74.40951 0,74.40951 0,53.14965 10.62993,53.14965 10.62993,26.574825 0,26.574825 0,0 31.003963,0 31.003963,10.62993 62.007925,10.62993 62.007925,0 83.267785,0 83.267785,10.62993 104.52765,10.62993 104.52765,0 "
       id="polygon2" />
  </g>
  <!-- Back-->
  <g
     transform="translate(465.41377,15.000011)"
     id="g8"
     style="fill:none;stroke:#ff0000;stroke-opacity:1;stroke-width:0.09375008;stroke-miterlimit:4;stroke-dasharray:none">
    <polygon
       style="fill:none;stroke:#ff0000;stroke-width:0.09375008;stroke-opacity:1;stroke-miterlimit:4;stroke-dasharray:none"
       points="62.007925,0 83.267785,0 83.267785,10.62993 104.52765,10.62993 104.52765,0 125.7875,0 125.7875,10.62993 147.04737,10.62993 147.04737,0 168.30723,0 168.30723,10.62993 189.56708,10.62993 189.56708,0 210.82694,0 210.82694,10.62993 232.0868,10.62993 232.0868,0 253.34667,0 253.34667,10.62993 274.60653,10.62993 274.60653,0 295.86639,0 295.86639,10.62993 317.12624,10.62993 317.12624,0 338.3861,0 338.3861,10.62993 359.64596,10.62993 359.64596,0 380.90582,0 380.90582,10.62993 411.90979,10.62993 411.90979,0 442.91375,0 442.91375,26.574825 432.28382,26.574825 432.28382,53.14965 442.91375,53.14965 442.91375,74.40951 432.28382,74.40951 432.28382,95.66937 442.91375,95.66937 442.91375,116.92923 432.28382,116.92923 432.28382,143.50405 442.91375,143.50405 442.91375,170.07888 411.90979,170.07888 411.90979,159.44895 380.90582,159.44895 380.90582,170.07888 359.64596,170.07888 359.64596,159.44895 338.3861,159.44895 338.3861,170.07888 317.12624,170.07888 317.12624,159.44895 295.86639,159.44895 295.86639,170.07888 274.60653,170.07888 274.60653,159.44895 253.34667,159.44895 253.34667,170.07888 232.0868,170.07888 232.0868,159.44895 210.82694,159.44895 210.82694,170.07888 189.56708,170.07888 189.56708,159.44895 168.30723,159.44895 168.30723,170.07888 147.04737,170.07888 147.04737,159.44895 125.7875,159.44895 125.7875,170.07888 104.52765,170.07888 104.52765,159.44895 83.267785,159.44895 83.267785,170.07888 62.007925,170.07888 62.007925,159.44895 31.003963,159.44895 31.003963,170.07888 0,170.07888 0,143.50405 10.62993,143.50405 10.62993,116.92923 0,116.92923 0,95.66937 10.62993,95.66937 10.62993,74.40951 0,74.40951 0,53.14965 10.62993,53.14965 10.62993,26.574825 0,26.574825 0,0 31.003963,0 31.003963,10.62993 62.007925,10.62993 "
       id="polygon6" />
  </g>
  <!-- Left-->
  <g
     transform="translate(912.07752,15.000011)"
     id="g12"
     style="fill:none;stroke:#ff0000;stroke-opacity:1;stroke-width:0.09375008;stroke-miterlimit:4;stroke-dasharray:none">
    <polygon
       style="fill:none;stroke:#ff0000;stroke-width:0.09375008;stroke-opacity:1;stroke-miterlimit:4;stroke-dasharray:none"
       points="79.724475,10.62993 100.98434,10.62993 100.98434,0 122.24419,0 122.24419,10.62993 143.50405,10.62993 143.50405,0 164.76391,0 164.76391,10.62993 186.02378,10.62993 186.02378,0 207.28364,0 207.28364,10.62993 228.5435,10.62993 228.5435,0 249.80336,0 249.80336,10.62993 271.06322,10.62993 271.06322,0 292.32308,0 292.32308,10.62993 321.55538,10.62993 321.55538,0 340.15776,0 340.15776,26.574825 350.78769,26.574825 350.78769,53.14965 340.15776,53.14965 340.15776,74.40951 350.78769,74.40951 350.78769,95.66937 340.15776,95.66937 340.15776,116.92923 350.78769,116.92923 350.78769,143.50405 340.15776,143.50405 340.15776,170.07888 321.55538,170.07888 321.55538,159.44895 292.32308,159.44895 292.32308,170.07888 271.06322,170.07888 271.06322,159.44895 249.80336,159.44895 249.80336,170.07888 228.5435,170.07888 228.5435,159.44895 207.28364,159.44895 207.28364,170.07888 186.02378,170.07888 186.02378,159.44895 164.76391,159.44895 164.76391,170.07888 143.50405,170.07888 143.50405,159.44895 122.24419,159.44895 122.24419,170.07888 100.98434,170.07888 100.98434,159.44895 79.724475,159.44895 79.724475,170.07888 58.464615,170.07888 58.464615,159.44895 29.232308,159.44895 29.232308,170.07888 10.62993,170.07888 10.62993,143.50405 0,143.50405 0,116.92923 10.62993,116.92923 10.62993,95.66937 0,95.66937 0,74.40951 10.62993,74.40951 10.62993,53.14965 0,53.14965 0,26.574825 10.62993,26.574825 10.62993,0 29.232308,0 29.232308,10.62993 58.464615,10.62993 58.464615,0 79.724475,0 "
       id="polygon10" />
  </g>
  <!-- Right-->
  <g
     transform="translate(912.07752,192.5789)"
     id="g16"
     style="fill:none;stroke:#ff0000;stroke-opacity:1;stroke-width:0.09375008;stroke-miterlimit:4;stroke-dasharray:none">
    <polygon
       style="fill:none;stroke:#ff0000;stroke-width:0.09375008;stroke-opacity:1;stroke-miterlimit:4;stroke-dasharray:none"
       points="29.232308,10.62993 58.464615,10.62993 58.464615,0 79.724475,0 79.724475,10.62993 100.98434,10.62993 100.98434,0 122.24419,0 122.24419,10.62993 143.50405,10.62993 143.50405,0 164.76391,0 164.76391,10.62993 186.02378,10.62993 186.02378,0 207.28364,0 207.28364,10.62993 228.5435,10.62993 228.5435,0 249.80336,0 249.80336,10.62993 271.06322,10.62993 271.06322,0 292.32308,0 292.32308,10.62993 321.55538,10.62993 321.55538,0 340.15776,0 340.15776,26.574825 350.78769,26.574825 350.78769,53.14965 340.15776,53.14965 340.15776,74.40951 350.78769,74.40951 350.78769,95.66937 340.15776,95.66937 340.15776,116.92923 350.78769,116.92923 350.78769,143.50405 340.15776,143.50405 340.15776,170.07888 321.55538,170.07888 321.55538,159.44895 292.32308,159.44895 292.32308,170.07888 271.06322,170.07888 271.06322,159.44895 249.80336,159.44895 249.80336,170.07888 228.5435,170.07888 228.5435,159.44895 207.28364,159.44895 207.28364,170.07888 186.02378,170.07888 186.02378,159.44895 164.76391,159.44895 164.76391,170.07888 143.50405,170.07888 143.50405,159.44895 122.24419,159.44895 122.24419,170.07888 100.98434,170.07888 100.98434,159.44895 79.724475,159.44895 79.724475,170.07888 58.464615,170.07888 58.464615,159.44895 29.232308,159.44895 29.232308,170.07888 10.62993,170.07888 10.62993,143.50405 0,143.50405 0,116.92923 10.62993,116.92923 10.62993,95.66937 0,95.66937 0,74.40951 10.62993,74.40951 10.62993,53.14965 0,53.14965 0,26.574825 10.62993,26.574825 10.62993,0 29.232308,0 "
       id="polygon14" />
  </g>
  <!-- Top-->
  <g
     transform="translate(13.125009,192.5789)"
     id="g20"
     style="fill:none;stroke:#ff0000;stroke-opacity:1;stroke-width:0.09375008;stroke-miterlimit:4;stroke-dasharray:none">
    <polygon
       style="fill:none;stroke:#ff0000;stroke-width:0.09375008;stroke-opacity:1;stroke-miterlimit:4;stroke-dasharray:none"
       points="83.267785,10.62993 83.267785,0 104.52765,0 104.52765,10.62993 125.7875,10.62993 125.7875,0 147.04737,0 147.04737,10.62993 168.30723,10.62993 168.30723,0 189.56708,0 189.56708,10.62993 210.82694,10.62993 210.82694,0 232.0868,0 232.0868,10.62993 253.34667,10.62993 253.34667,0 274.60653,0 274.60653,10.62993 295.86639,10.62993 295.86639,0 317.12624,0 317.12624,10.62993 338.3861,10.62993 338.3861,0 359.64596,0 359.64596,10.62993 380.90582,10.62993 380.90582,0 411.90979,0 411.90979,10.62993 432.28382,10.62993 432.28382,29.232308 442.91375,29.232308 442.91375,58.464615 432.28382,58.464615 432.28382,79.724475 442.91375,79.724475 442.91375,100.98434 432.28382,100.98434 432.28382,122.24419 442.91375,122.24419 442.91375,143.50405 432.28382,143.50405 432.28382,164.76391 442.91375,164.76391 442.91375,186.02378 432.28382,186.02378 432.28382,207.28364 442.91375,207.28364 442.91375,228.5435 432.28382,228.5435 432.28382,249.80336 442.91375,249.80336 442.91375,271.06322 432.28382,271.06322 432.28382,292.32308 442.91375,292.32308 442.91375,321.55538 432.28382,321.55538 432.28382,340.15776 411.90979,340.15776 411.90979,350.78769 380.90582,350.78769 380.90582,340.15776 359.64596,340.15776 359.64596,350.78769 338.3861,350.78769 338.3861,340.15776 317.12624,340.15776 317.12624,350.78769 295.86639,350.78769 295.86639,340.15776 274.60653,340.15776 274.60653,350.78769 253.34667,350.78769 253.34667,340.15776 232.0868,340.15776 232.0868,350.78769 210.82694,350.78769 210.82694,340.15776 189.56708,340.15776 189.56708,350.78769 168.30723,350.78769 168.30723,340.15776 147.04737,340.15776 147.04737,350.78769 125.7875,350.78769 125.7875,340.15776 104.52765,340.15776 104.52765,350.78769 83.267785,350.78769 83.267785,340.15776 62.007925,340.15776 62.007925,350.78769 31.003963,350.78769 31.003963,340.15776 10.62993,340.15776 10.62993,321.55538 0,321.55538 0,292.32308 10.62993,292.32308 10.62993,271.06322 0,271.06322 0,249.80336 10.62993,249.80336 10.62993,228.5435 0,228.5435 0,207.28364 10.62993,207.28364 10.62993,186.02378 0,186.02378 0,164.76391 10.62993,164.76391 10.62993,143.50405 0,143.50405 0,122.24419 10.62993,122.24419 10.62993,100.98434 0,100.98434 0,79.724475 10.62993,79.724475 10.62993,58.464615 0,58.464615 0,29.232308 10.62993,29.232308 10.62993,10.62993 31.003963,10.62993 31.003963,0 62.007925,0 62.007925,10.62993 "
       id="polygon18" />
  </g>
  <!-- Bottom-->
  <g
     transform="translate(465.41376849999995, 192.5788985) "
     id="g24"
     style="fill:none;stroke:#ff0000;stroke-opacity:1;stroke-width:0.09375008;stroke-miterlimit:4;stroke-dasharray:none">
    <polygon
       style="stroke:#ff0000;fill:none;stroke-width:0.09375008;stroke-opacity:1;stroke-miterlimit:4;stroke-dasharray:none"
       points="10.62993, 10.62993 31.0039625, 10.62993 31.0039625, 0 62.007925, 0 62.007925, 10.62993 83.267785, 10.62993 83.267785, 0 104.527645, 0 104.527645, 10.62993 125.787505, 10.62993 125.787505, 0 147.047365, 0 147.047365, 10.62993 168.30722500000002, 10.62993 168.30722500000002, 0 189.567085, 0 189.567085, 10.62993 210.826945, 10.62993 210.826945, 0 232.086805, 0 232.086805, 10.62993 253.346665, 10.62993 253.346665, 0 274.60652500000003, 0 274.60652500000003, 10.62993 295.86638500000004, 10.62993 295.86638500000004, 0 317.126245, 0 317.126245, 10.62993 338.386105, 10.62993 338.386105, 0 359.645965, 0 359.645965, 10.62993 380.905825, 10.62993 380.905825, 0 411.9097875, 0 411.9097875, 10.62993 432.28382, 10.62993 432.28382, 29.2323075 442.91375, 29.2323075 442.91375, 58.464615 432.28382, 58.464615 432.28382, 79.724475 442.91375, 79.724475 442.91375, 100.984335 432.28382, 100.984335 432.28382, 122.24419499999999 442.91375, 122.24419499999999 442.91375, 143.504055 432.28382, 143.504055 432.28382, 164.763915 442.91375, 164.763915 442.91375, 186.023775 432.28382, 186.023775 432.28382, 207.283635 442.91375, 207.283635 442.91375, 228.543495 432.28382, 228.543495 432.28382, 249.803355 442.91375, 249.803355 442.91375, 271.063215 432.28382, 271.063215 432.28382, 292.323075 442.91375, 292.323075 442.91375, 321.5553825 432.28382, 321.5553825 432.28382, 340.15776 411.9097875, 340.15776 411.9097875, 350.78769 380.905825, 350.78769 380.905825, 340.15776 359.645965, 340.15776 359.645965, 350.78769 338.386105, 350.78769 338.386105, 340.15776 317.126245, 340.15776 317.126245, 350.78769 295.86638500000004, 350.78769 295.86638500000004, 340.15776 274.60652500000003, 340.15776 274.60652500000003, 350.78769 253.346665, 350.78769 253.346665, 340.15776 232.086805, 340.15776 232.086805, 350.78769 210.826945, 350.78769 210.826945, 340.15776 189.567085, 340.15776 189.567085, 350.78769 168.30722500000002, 350.78769 168.30722500000002, 340.15776 147.047365, 340.15776 147.047365, 350.78769 125.787505, 350.78769 125.787505, 340.15776 104.527645, 340.15776 104.527645, 350.78769 83.267785, 350.78769 83.267785, 340.15776 62.007925, 340.15776 62.007925, 350.78769 31.0039625, 350.78769 31.0039625, 340.15776 10.62993, 340.15776 10.62993, 321.5553825 0, 321.5553825 0, 292.323075 10.62993, 292.323075 10.62993, 271.063215 0, 271.063215 0, 249.803355 10.62993, 249.803355 10.62993, 228.543495 0, 228.543495 0, 207.283635 10.62993, 207.283635 10.62993, 186.023775 0, 186.023775 0, 164.763915 10.62993, 164.763915 10.62993, 143.504055 0, 143.504055 0, 122.24419499999999 10.62993, 122.24419499999999 10.62993, 100.984335 0, 100.984335 0, 79.724475 10.62993, 79.724475 10.62993, 58.464615 0, 58.464615 0, 29.2323075 10.62993, 29.2323075 "
       id="polygon22" />
  </g>
  <rect
     style="fill:none;stroke:#ff0000;stroke-width:0.09375008;stroke-miterlimit:4;stroke-dasharray:none;stroke-opacity:1"
     id="rect34"
     width="12.401586"
     height="180.70882"
     x="374.63107"
     y="233.91797" />
  <rect
     style="fill:none;stroke:#ff0000;stroke-width:0.09375008;stroke-miterlimit:4;stroke-dasharray:none;stroke-opacity:1"
     id="rect42"
     width="78.284485"
     height="88.683296"
     x="274.99832"
     y="426.0116" />
  <rect
     style="fill:none;stroke:#ff0000;stroke-width:0.09375008;stroke-miterlimit:4;stroke-dasharray:none;stroke-opacity:1"
     id="rect871"
     width="82.034607"
     height="83.865021"
     x="133.25032"
     y="58.137642"
     ry="2.0087583" />
</svg>
