<?xml version="1.0" encoding="UTF-8" standalone="no"?>
<svg
   xmlns:dc="http://purl.org/dc/elements/1.1/"
   xmlns:cc="http://creativecommons.org/ns#"
   xmlns:rdf="http://www.w3.org/1999/02/22-rdf-syntax-ns#"
   xmlns:svg="http://www.w3.org/2000/svg"
   xmlns="http://www.w3.org/2000/svg"
   xmlns:sodipodi="http://sodipodi.sourceforge.net/DTD/sodipodi-0.dtd"
   xmlns:inkscape="http://www.inkscape.org/namespaces/inkscape"
   width="210mm"
   height="297mm"
   viewBox="0 0 210 297"
   version="1.1"
   id="svg8"
   inkscape:version="1.0.2 (394de47547, 2021-03-26)"
   sodipodi:docname="Metacrilato.svg">
  <defs
     id="defs2" />
  <sodipodi:namedview
     id="base"
     pagecolor="#ffffff"
     bordercolor="#666666"
     borderopacity="1.0"
     inkscape:pageopacity="0.0"
     inkscape:pageshadow="2"
     inkscape:zoom="2.56"
     inkscape:cx="359.71275"
     inkscape:cy="659.34354"
     inkscape:document-units="mm"
     inkscape:current-layer="layer1"
     inkscape:document-rotation="0"
     showgrid="false"
     inkscape:window-width="1853"
     inkscape:window-height="1025"
     inkscape:window-x="67"
     inkscape:window-y="27"
     inkscape:window-maximized="1"
     showguides="true"
     inkscape:guide-bbox="true" />
  <metadata
     id="metadata5">
    <rdf:RDF>
      <cc:Work
         rdf:about="">
        <dc:format>image/svg+xml</dc:format>
        <dc:type
           rdf:resource="http://purl.org/dc/dcmitype/StillImage" />
        <dc:title></dc:title>
      </cc:Work>
    </rdf:RDF>
  </metadata>
  <g
     inkscape:label="Capa 1"
     inkscape:groupmode="layer"
     id="layer1">
    <path
       id="rect833"
       style="opacity:0.763817;fill:none;fill-opacity:0.996983;fill-rule:evenodd;stroke:#ff0000;stroke-width:0.208489;stroke-opacity:0.999927"
       d="M 315.37305 509.70508 C 293.33215 509.70508 275.58789 527.44931 275.58789 549.49023 L 275.58789 720.80469 C 275.58789 739.99457 289.04556 755.908 307.07227 759.70703 L 307.07227 793.28711 L 494.98828 793.28711 L 494.98828 759.72461 C 513.0169 755.92562 526.47266 739.99625 526.47266 720.80469 L 526.47266 549.49023 C 526.47266 527.44931 508.72838 509.70508 486.6875 509.70508 L 315.37305 509.70508 z "
       transform="scale(0.26458333)" />
    <path
       style="fill:#000000;stroke-width:0.264583"
       id="path2096"
       d="" />
    <path
       style="fill:#000000;stroke-width:0.264583"
       id="path2094"
       d="" />
    <path
       style="fill:#000000;stroke-width:0.264583"
       id="path2092"
       d="" />
    <text
       xml:space="preserve"
       style="font-style:normal;font-weight:normal;font-size:8.95939px;line-height:1.25;font-family:sans-serif;fill:#000000;fill-opacity:1;stroke:none;stroke-width:0.223984"
       x="105.36772"
       y="141.7883"
       id="text7064"
       transform="scale(0.90326184,1.1070987)"><tspan
         sodipodi:role="line"
         id="tspan7062"
         x="105.36772"
         y="141.7883"
         style="font-style:normal;font-variant:normal;font-weight:normal;font-stretch:normal;font-family:Ani;-inkscape-font-specification:Ani;stroke-width:0.223984">MARC</tspan></text>
    <path
       style="fill:#000000;stroke-width:0.0624024"
       d="m 88.782016,177.9859 v -16.05315 h 17.034574 17.03455 v 16.05315 16.05316 H 105.81659 88.782016 Z m 32.847784,6.06711 c 0,-0.26143 -0.0187,-0.72378 -0.0415,-1.02748 l -0.0415,-0.55215 -14.80741,0.0379 -14.807418,0.0379 v -3.25086 c 0,-1.78797 0.01548,-3.25086 0.03439,-3.25086 0.02884,0 3.639732,2.64011 7.060826,5.16253 0.49062,0.36174 0.90185,0.64848 0.91383,0.63719 0.012,-0.0113 0.004,-2.24387 -0.0186,-4.96129 l -0.0404,-4.94075 -0.61632,-0.0384 c -0.33898,-0.0212 -0.86495,-0.0386 -1.16883,-0.0388 l -0.55251,-3e-4 0.0313,2.70361 c 0.0208,1.79922 0.01,2.69591 -0.0334,2.68058 -0.0356,-0.0127 -1.8207,-1.30427 -3.967007,-2.87021 -2.146308,-1.56594 -3.929212,-2.85625 -3.96201,-2.86736 -0.03642,-0.0124 -0.05964,2.51673 -0.05964,6.49699 v 6.51718 H 105.59181 121.63 Z m -24.723702,-0.22089 -0.44246,-0.33272 -0.0194,0.30244 c -0.0163,0.25308 -0.0399,0.30244 -0.14463,0.30244 -0.11538,0 -0.12521,-0.0456 -0.12521,-0.5807 v -0.58071 l 0.41088,0.30811 c 0.22598,0.16945 0.42846,0.3081 0.44996,0.3081 0.0215,0 0.0391,-0.12267 0.0391,-0.27261 0,-0.25039 0.0131,-0.2726 0.1607,-0.2726 0.16015,0 0.16071,0.003 0.16071,0.5755 0,0.31651 -0.0106,0.57549 -0.0236,0.57549 -0.013,0 -0.22269,-0.14973 -0.46604,-0.33274 z m 17.620612,0.0299 c -0.21212,-0.16437 -0.40738,-0.29977 -0.4339,-0.30087 -0.0265,-8.6e-4 -0.0482,0.12064 -0.0482,0.27058 0,0.25038 -0.0131,0.2726 -0.1607,0.2726 -0.1602,0 -0.1607,-0.002 -0.1607,-0.57907 0,-0.44732 0.0183,-0.56864 0.0803,-0.53322 0.0442,0.0252 0.26114,0.17926 0.4821,0.34229 l 0.40177,0.29643 v -0.30842 c 0,-0.26803 0.0168,-0.30842 0.12855,-0.30842 0.11955,0 0.12857,0.0404 0.12857,0.57549 0,0.31652 -0.007,0.57459 -0.0161,0.57347 -0.009,-8.7e-4 -0.18963,-0.1365 -0.40176,-0.30086 z m -17.039602,0.16091 c -0.0182,-0.0447 -0.0246,-0.28329 -0.014,-0.53006 l 0.0191,-0.44866 0.59461,-0.0174 0.5946,-0.0174 v 0.54748 0.54747 h -0.58055 c -0.42671,0 -0.58933,-0.0215 -0.6137,-0.0814 z m 0.9244,-0.47896 -0.0195,-0.31803 -0.30534,-0.0184 -0.30533,-0.0184 v 0.3365 0.3365 h 0.32476 0.32477 z m 0.4255,0.47896 c -0.0182,-0.0447 -0.0246,-0.28329 -0.014,-0.53006 l 0.0191,-0.44866 0.5946,-0.0174 c 0.50015,-0.0146 0.594612,-0.003 0.594612,0.0757 0,0.075 -0.088,0.0931 -0.449972,0.0931 h -0.44997 v 0.33319 0.33317 h 0.44997 c 0.40711,0 0.449972,0.0115 0.449972,0.12116 0,0.11221 -0.0429,0.12116 -0.580552,0.12116 -0.42671,0 -0.58934,-0.0216 -0.61369,-0.0814 z m 1.322812,-0.4638 v -0.54976 l 0.5946,0.0174 0.59461,0.0174 v 0.51491 0.51492 l -0.59461,0.0174 -0.5946,0.0174 z m 0.89994,-0.0336 v -0.33652 l -0.30534,0.0184 -0.30534,0.0184 -0.0195,0.31803 -0.0194,0.31804 h 0.32477 0.32477 z m 0.38568,0.0336 v -0.54521 h 0.61376 0.61373 l -0.0191,0.37861 -0.0191,0.37861 -0.43389,0.0179 c -0.41266,0.017 -0.43391,0.0252 -0.43391,0.16659 0,0.1182 -0.0329,0.14867 -0.1607,0.14867 -0.15952,0 -0.16071,-0.004 -0.16071,-0.5452 z m 0.95243,-0.1666 c -0.0186,-0.15256 -0.0461,-0.16814 -0.32567,-0.18505 -0.3019,-0.0182 -0.30534,-0.0164 -0.30534,0.16659 0,0.182 0.006,0.18506 0.32568,0.18506 0.31736,0 0.32516,-0.004 0.30533,-0.1666 z m 0.84746,0.46245 c 0,-0.19068 -0.0542,-0.31893 -0.23046,-0.5452 l -0.23045,-0.29586 h 0.16151 c 0.0989,0 0.21444,0.0634 0.29809,0.16363 l 0.13657,0.16362 0.14346,-0.16956 c 0.0989,-0.11682 0.18958,-0.16299 0.29174,-0.14847 0.1459,0.0207 0.14458,0.0256 -0.0826,0.30518 -0.17747,0.21847 -0.2308,0.34094 -0.2308,0.53006 0,0.20555 -0.0211,0.24595 -0.12856,0.24595 -0.10774,0 -0.12856,-0.0404 -0.12856,-0.24935 z m 0.83566,-0.29585 v -0.54521 h 0.61068 0.61067 v 0.3599 c 0,0.19794 -0.0305,0.37765 -0.0677,0.39936 -0.045,0.0262 -0.0337,0.0885 0.0336,0.18531 0.099,0.14232 0.097,0.14584 -0.082,0.14584 -0.12991,0 -0.20857,-0.0442 -0.26946,-0.15145 -0.0695,-0.12228 -0.13488,-0.15145 -0.33977,-0.15145 -0.23601,0 -0.25161,0.0106 -0.22303,0.15145 0.0258,0.12696 0.006,0.15145 -0.12108,0.15145 -0.14829,0 -0.15179,-0.0126 -0.15179,-0.5452 z m 0.91539,-0.15003 c 0.0398,-0.19652 0.0147,-0.21344 -0.31745,-0.21344 -0.28972,0 -0.39261,0.0883 -0.31757,0.2726 0.0252,0.0618 0.12784,0.0909 0.32079,0.0909 0.25095,0 0.28732,-0.0173 0.31423,-0.15003 z m 0.43452,0.15003 c 0,-0.54116 8.6e-4,-0.54521 0.16071,-0.54521 0.1595,0 0.1607,0.004 0.1607,0.54521 0,0.54116 -8.6e-4,0.5452 -0.1607,0.5452 -0.15951,0 -0.16071,-0.004 -0.16071,-0.5452 z m 0.4128,0.4638 c -0.0182,-0.0447 -0.0246,-0.28329 -0.0141,-0.53006 l 0.0191,-0.44866 0.56246,-0.0175 c 0.50437,-0.0157 0.56247,-0.006 0.5626,0.0909 1.6e-4,0.0951 -0.0511,0.10588 -0.41783,0.0881 l -0.41796,-0.0203 v 0.33835 0.33835 h 0.32141 c 0.24283,0 0.3214,-0.0222 0.3214,-0.0909 0,-0.0505 -0.0571,-0.0909 -0.12857,-0.0909 -0.0869,0 -0.12856,-0.0404 -0.12856,-0.12463 0,-0.10918 0.034,-0.12233 0.2732,-0.10601 0.24751,0.0169 0.27517,0.035 0.29429,0.19253 0.0116,0.0957 0.004,0.23877 -0.0172,0.31803 -0.0369,0.13845 -0.0612,0.14413 -0.61771,0.14413 -0.42568,0 -0.58812,-0.0215 -0.61246,-0.0814 z m 1.3228,-0.4638 c 0,-0.50482 0.01,-0.54521 0.12856,-0.54521 0.10408,0 0.12856,0.0404 0.12856,0.21202 v 0.21203 h 0.32141 0.3214 v -0.21203 c 0,-0.18577 0.0199,-0.21202 0.16072,-0.21202 0.1595,0 0.16069,0.004 0.16069,0.54521 0,0.54116 -8.6e-4,0.5452 -0.16069,0.5452 -0.14082,0 -0.16072,-0.0263 -0.16072,-0.21203 v -0.21203 h -0.3214 -0.32141 v 0.21203 c 0,0.17163 -0.0245,0.21203 -0.12856,0.21203 -0.11904,0 -0.12856,-0.0404 -0.12856,-0.5452 z m 1.78662,0.106 -0.0189,-0.43919 -0.24106,-0.0188 c -0.15768,-0.0123 -0.24105,-0.0489 -0.24105,-0.106 0,-0.0698 0.12209,-0.0872 0.61067,-0.0872 0.54002,0 0.61067,0.0124 0.61067,0.10661 0,0.08 -0.0521,0.10644 -0.20891,0.106 l -0.20891,-5.6e-4 -0.0189,0.4392 c -0.0166,0.38591 -0.0338,0.43921 -0.14183,0.43921 -0.108,0 -0.12522,-0.0534 -0.14181,-0.4392 z m 0.84891,0.32031 c 0,-0.11244 0.0401,-0.12342 0.44997,-0.12342 0.35084,0 0.44997,-0.0195 0.44997,-0.0881 0,-0.0666 -0.10584,-0.0925 -0.43389,-0.10602 l -0.4339,-0.0179 -0.0195,-0.31803 -0.0195,-0.31803 h 0.58188 c 0.46626,0 0.58189,0.0175 0.58189,0.0881 0,0.0666 -0.10575,0.0925 -0.43323,0.10601 -0.34787,0.0144 -0.43735,0.0383 -0.45413,0.12119 -0.0179,0.0884 0.0466,0.10584 0.44931,0.12116 l 0.47019,0.0179 v 0.3029 0.30289 l -0.5946,0.0174 c -0.56145,0.0165 -0.5946,0.0105 -0.5946,-0.106 z m 1.31273,0.0375 c -0.0182,-0.0447 -0.0246,-0.2833 -0.014,-0.53006 l 0.0191,-0.44867 0.59461,-0.0174 0.5946,-0.0174 v 0.54748 0.54747 h -0.58055 c -0.42671,0 -0.58934,-0.0215 -0.6137,-0.0813 z m 0.92441,-0.47896 -0.0195,-0.31803 -0.30534,-0.0184 -0.30534,-0.0184 v 0.33651 0.33649 h 0.32478 0.32476 z m 0.39839,0.0174 c 0,-0.50709 0.009,-0.54747 0.12857,-0.54747 0.11632,0 0.12857,0.0404 0.12857,0.42404 v 0.42404 h 0.3214 0.32141 v -0.42404 c 0,-0.41367 0.004,-0.42404 0.16321,-0.42404 h 0.1632 l -0.0186,0.53006 -0.0185,0.53005 -0.59461,0.0174 -0.59461,0.0174 z m 2.63554,-0.003 v -0.54975 l 0.5946,0.0174 0.59461,0.0174 v 0.51491 0.51492 l -0.59461,0.0174 -0.5946,0.0174 z m 0.89994,-0.0303 v -0.33318 h -0.3214 -0.32141 v 0.33318 0.33318 h 0.32141 0.3214 z m 0.38569,0.45661 c 0,-0.11322 0.0399,-0.12343 0.48211,-0.12343 0.37925,0 0.48211,-0.0189 0.48211,-0.0882 0,-0.0675 -0.10951,-0.0924 -0.46604,-0.10601 l -0.46603,-0.0178 v -0.3029 -0.30288 l 0.56245,-0.0175 c 0.47148,-0.0147 0.56247,-0.003 0.56247,0.0757 0,0.0744 -0.0846,0.0932 -0.41784,0.0932 -0.37171,0 -0.41782,0.013 -0.41782,0.11839 0,0.104 0.0527,0.12057 0.4339,0.1363 l 0.4339,0.0179 v 0.30289 0.3029 l -0.59461,0.0174 c -0.56144,0.0165 -0.5946,0.0105 -0.5946,-0.106 z m -5.59248,-3.53622 v -0.92869 l -2.90321,-0.0402 c -1.59677,-0.0221 -3.39022,-0.0402 -3.98545,-0.0402 h -1.08223 l -2.4e-4,-1.95363 c -1.6e-4,-1.0745 -0.0191,-2.3421 -0.0421,-2.81688 l -0.0419,-0.86323 h 3.99082 3.99082 l 0.0355,-0.31804 c 0.0195,-0.17492 0.044,-0.61108 0.0545,-0.96925 l 0.019,-0.65121 h -4.72206 c -4.66284,0 -4.72559,0.002 -5.00042,0.12697 -0.18684,0.0852 -0.33159,0.21263 -0.44036,0.38753 l -0.16203,0.26056 -0.0138,3.99158 c -0.0155,4.49138 -0.0517,4.15428 0.481,4.48676 l 0.26674,0.16647 1.7405,0.0327 c 0.95728,0.0179 3.10729,0.0383 4.7778,0.0454 l 3.03729,0.0128 z m 9.23483,0.8309 c 1.54736,-0.0409 1.64245,-0.067 1.89933,-0.52035 0.14315,-0.25267 0.14774,-0.31242 0.16594,-2.16462 0.0135,-1.37642 -0.003,-1.95614 -0.0585,-2.08993 -0.13261,-0.31804 -0.38484,-0.58764 -0.65987,-0.70534 -0.24499,-0.10484 -0.46745,-0.11333 -3.00253,-0.11457 -1.50586,-5.5e-4 -3.08959,-0.0191 -3.5194,-0.0409 l -0.78148,-0.0396 v -0.40543 c 0,-0.22299 0.0191,-0.65816 0.0423,-0.96706 l 0.0423,-0.56163 3.69623,0.045 3.69621,0.045 -0.0423,-0.56213 c -0.0233,-0.30918 -0.0423,-0.73515 -0.0423,-0.9466 v -0.38445 h -4.37321 c -3.8018,0 -4.4043,0.0122 -4.61131,0.0938 -0.30789,0.12123 -0.5095,0.30163 -0.67377,0.60288 -0.12612,0.2313 -0.13151,0.33021 -0.11846,2.17569 0.0147,2.08329 0.0163,2.09339 0.36985,2.40988 0.41364,0.37026 0.37315,0.36638 4.13582,0.39676 1.89148,0.0153 3.44306,0.0318 3.44797,0.0367 0.005,0.005 0.0299,0.42464 0.0555,0.93274 l 0.0466,0.92381 h -3.99272 -3.99272 v 0.95936 0.95935 l 3.45512,-0.0212 c 1.90032,-0.0116 4.06728,-0.0374 4.81548,-0.0572 z"
       id="path2928" />
  </g>
</svg>
