<?xml version="1.0" standalone="no"?>
<!DOCTYPE svg PUBLIC "-//W3C//DTD SVG 20010904//EN"
 "http://www.w3.org/TR/2001/REC-SVG-20010904/DTD/svg10.dtd">
<svg version="1.0" xmlns="http://www.w3.org/2000/svg"
 width="1280.000000pt" height="500.000000pt" viewBox="0 0 1280.000000 500.000000"
 preserveAspectRatio="xMidYMid meet">
<metadata>
Created by potrace 1.16, written by Peter Selinger 2001-2019
</metadata>
<g transform="translate(0.000000,500.000000) scale(0.100000,-0.100000)"
fill="#000000" stroke="none">
<path d="M0 2500 l0 -2500 6400 0 6400 0 0 2500 0 2500 -6400 0 -6400 0 0
-2500z m4268 758 c108 -84 253 -195 320 -247 221 -171 314 -243 467 -359 l150
-114 3 418 2 417 98 -6 c53 -4 129 -7 169 -7 l72 0 1 -497 c0 -274 3 -618 7
-765 3 -148 3 -268 -1 -268 -7 0 -484 364 -562 429 -45 37 -350 276 -478 375
-61 47 -113 83 -118 80 -4 -3 -6 -226 -5 -497 l2 -492 2150 0 2150 0 5 -153 5
-152 -2327 0 -2328 0 0 995 c0 703 3 995 11 995 6 0 99 -68 207 -152z m2860
-27 c-3 -76 -9 -144 -13 -151 -6 -9 -131 -11 -571 -9 -367 3 -566 1 -573 -6
-6 -7 -8 -157 -3 -435 l7 -425 565 -8 c311 -4 571 -10 578 -12 9 -3 12 -41 12
-145 l0 -140 -447 1 c-247 1 -557 4 -690 6 l-243 5 -52 32 c-36 22 -54 40 -60
61 -5 17 -9 299 -8 628 0 522 2 603 16 637 17 42 56 76 102 90 15 5 333 9 706
9 l679 1 -5 -139z m1550 -15 l3 -139 -533 4 -533 4 -9 -144 c-7 -118 -6 -145
5 -152 8 -5 232 -9 499 -9 302 0 499 -4 522 -10 44 -13 93 -51 113 -90 11 -21
14 -91 16 -333 1 -292 1 -308 -20 -349 -40 -83 7 -77 -773 -87 -381 -5 -695
-7 -698 -4 -3 2 -5 68 -5 146 l0 142 578 -3 577 -4 0 146 c0 79 -4 147 -8 150
-5 3 -222 6 -483 6 -275 1 -495 6 -524 12 -39 8 -60 21 -97 58 l-48 47 -2 254
c-4 402 -4 401 70 466 l37 33 655 -3 655 -2 3 -139z"/>
<path d="M5000 1564 c0 -83 1 -85 23 -82 18 2 23 10 25 46 l3 42 59 -45 c62
-48 75 -53 83 -32 4 10 6 10 6 0 1 -9 25 -13 85 -13 95 0 96 1 96 92 0 77 -1
78 -96 78 -59 0 -84 -4 -84 -12 0 -9 -3 -9 -12 0 -7 7 -20 12 -30 12 -14 0
-18 -8 -18 -40 0 -22 -3 -40 -8 -40 -4 0 -31 18 -61 40 -29 22 -57 40 -62 40
-5 0 -9 -39 -9 -86z"/>
<path d="M5394 1637 c-3 -8 -4 -45 -2 -83 l3 -69 88 -3 c73 -2 87 0 87 13 0
12 -13 15 -65 15 l-65 0 0 50 0 50 48 1 c73 2 76 3 80 22 3 15 -6 17 -83 17
-63 0 -87 -4 -91 -13z"/>
<path d="M5584 1637 c-3 -8 -4 -45 -2 -83 l3 -69 88 -3 87 -3 0 86 0 85 -85 0
c-63 0 -87 -4 -91 -13z"/>
<path d="M5770 1565 c0 -84 0 -85 25 -85 20 0 25 5 25 25 0 23 4 24 63 27 l62
3 0 55 0 55 -87 3 -88 3 0 -86z"/>
<path d="M6160 1565 c0 -78 2 -85 20 -85 15 0 20 7 20 25 0 22 4 25 33 25 26
0 36 -6 45 -25 8 -17 20 -25 37 -25 23 0 24 2 15 20 -7 13 -8 32 -2 53 5 18 7
47 4 65 l-4 32 -84 0 -84 0 0 -85z"/>
<path d="M6414 1637 c-3 -8 -4 -45 -2 -83 l3 -69 85 0 85 0 3 48 3 47 -40 0
c-45 0 -58 -23 -20 -33 37 -10 15 -32 -32 -32 l-44 0 2 45 c1 25 2 48 2 53 1
4 28 7 61 7 47 0 60 3 60 15 0 21 -158 22 -166 2z"/>
<path d="M6600 1565 c0 -78 2 -85 20 -85 14 0 21 9 26 36 6 34 8 35 48 32 38
-3 41 -5 44 -35 2 -25 8 -33 23 -33 17 0 19 8 19 85 0 78 -2 85 -20 85 -16 0
-20 -7 -20 -35 0 -35 0 -35 -45 -35 -43 0 -44 1 -51 35 -4 25 -11 35 -25 35
-17 0 -19 -8 -19 -85z"/>
<path d="M6987 1636 c-3 -8 -4 -22 -2 -32 2 -11 4 -27 4 -36 1 -15 11 -18 67
-18 57 0 65 -2 62 -17 -3 -15 -16 -19 -66 -21 -46 -2 -62 -7 -62 -17 0 -12 17
-15 85 -15 l85 0 0 50 0 50 -65 0 c-58 0 -65 2 -65 20 0 18 7 20 60 20 47 0
60 3 60 15 0 21 -155 22 -163 1z"/>
<path d="M7180 1565 l0 -85 80 0 c95 0 97 2 92 104 l-4 66 -84 0 -84 0 0 -85z"/>
<path d="M7370 1565 l0 -85 84 0 84 0 6 35 c4 20 4 40 1 45 -3 6 -1 10 4 10 6
0 11 -20 11 -45 0 -38 3 -45 19 -45 16 0 20 8 23 46 l3 45 58 -44 57 -45 103
1 102 2 0 80 0 80 -87 3 -87 3 -4 -28 -4 -28 -2 28 c-1 22 -6 27 -26 27 -23 0
-25 -4 -25 -46 l0 -45 -60 46 c-33 25 -65 43 -70 40 -6 -4 -8 -11 -5 -16 4 -5
1 -9 -4 -9 -6 0 -11 7 -11 15 0 8 -9 15 -20 15 -18 0 -20 -7 -20 -71 l0 -70
-42 3 -43 3 -3 68 c-3 59 -5 67 -22 67 -18 0 -20 -7 -20 -85z"/>
<path d="M7940 1600 l0 -50 64 0 c59 0 88 -11 71 -28 -3 -3 -29 -7 -58 -8 -77
-3 -77 -3 -77 -19 0 -13 14 -15 88 -13 l87 3 0 45 0 45 -60 3 c-102 5 -100 42
3 42 39 0 52 4 52 15 0 12 -16 15 -85 15 l-85 0 0 -50z"/>
</g>
</svg>
