<?xml version="1.0" standalone="no"?>
<!DOCTYPE svg PUBLIC "-//W3C//DTD SVG 20010904//EN"
 "http://www.w3.org/TR/2001/REC-SVG-20010904/DTD/svg10.dtd">
<svg version="1.0" xmlns="http://www.w3.org/2000/svg"
 width="530.000000pt" height="530.000000pt" viewBox="0 0 530.000000 530.000000"
 preserveAspectRatio="xMidYMid meet">

<g transform="translate(0.000000,530.000000) scale(0.100000,-0.100000)"
fill="#000000" stroke="none">
<path d="M128 2645 l2 -1075 2490 0 2490 0 0 73 c0 39 -3 115 -6 168 l-7 97
-2303 -6 -2304 -5 0 536 c0 296 2 537 6 537 3 0 282 -216 621 -480 339 -264
617 -479 619 -477 1 1 0 369 -3 818 l-6 816 -111 7 c-61 3 -143 6 -181 6 l-70
0 3 -445 c3 -245 1 -445 -2 -445 -4 0 -283 214 -621 475 -337 261 -615 475
-617 475 -2 0 -2 -484 0 -1075z m1156 -915 c3 0 6 20 6 45 0 41 2 45 25 45 25
0 25 0 25 -96 0 -73 -3 -93 -12 -88 -7 5 -41 30 -75 57 l-63 49 0 -51 c0 -44
-3 -51 -20 -51 -19 0 -20 7 -20 96 l0 96 64 -51 c35 -28 67 -51 70 -51z m2667
50 c35 -27 67 -50 72 -50 4 0 7 20 7 45 0 38 3 45 20 45 19 0 20 -7 20 -96 l0
-96 -65 51 c-35 28 -67 51 -70 51 -3 0 -5 -20 -5 -45 0 -41 -2 -45 -25 -45
-25 0 -25 0 -25 95 0 52 1 95 3 95 2 0 32 -22 68 -50z m-2411 -50 l0 -91 -92
3 -93 3 -3 74 c-2 41 -1 80 2 88 4 9 29 13 96 13 l90 0 0 -90z m210 69 c0 -19
-5 -20 -70 -17 l-70 3 0 -52 0 -53 70 0 c64 0 70 -2 70 -20 0 -20 -5 -21 -92
-18 l-93 3 -3 74 c-2 41 -1 80 2 88 4 9 29 13 96 13 85 0 90 -1 90 -21z m205
-69 l0 -85 -92 -3 -93 -3 0 91 0 91 93 -3 92 -3 0 -85z m203 28 l-3 -63 -67
-3 c-65 -3 -68 -4 -68 -27 0 -20 -5 -25 -25 -25 -25 0 -25 1 -25 90 l0 90 95
0 96 0 -3 -62z m92 35 l21 -27 22 28 c16 19 30 27 46 24 22 -3 22 -4 -13 -50
-28 -36 -36 -56 -36 -87 0 -34 -3 -41 -20 -41 -17 0 -20 7 -20 43 0 33 -8 51
-35 86 -19 24 -35 45 -35 47 0 2 11 4 24 4 15 0 33 -11 46 -27z m320 -32 c0
-33 -5 -63 -11 -66 -7 -5 -5 -15 6 -31 15 -23 15 -24 -13 -24 -20 0 -33 7 -42
25 -10 19 -21 25 -47 25 -29 0 -33 -3 -33 -25 0 -20 -5 -25 -25 -25 -25 0 -25
1 -25 90 l0 90 95 0 95 0 0 -59z m70 -31 c0 -89 0 -90 -25 -90 -25 0 -25 1
-25 90 0 89 0 90 25 90 25 0 25 -1 25 -90z m190 70 c0 -18 -7 -20 -65 -20
l-65 0 0 -50 0 -50 50 0 c38 0 50 4 50 15 0 8 -9 15 -20 15 -14 0 -20 7 -20
21 0 18 5 20 43 17 38 -3 42 -6 45 -32 2 -15 1 -39 -3 -53 -5 -23 -8 -24 -98
-21 l-92 3 -3 74 c-2 41 -1 80 2 88 4 9 28 13 91 13 78 0 85 -2 85 -20z m70
-15 l0 -35 50 0 50 0 0 35 c0 31 3 35 25 35 25 0 25 -1 25 -90 0 -89 0 -90
-25 -90 -22 0 -25 4 -25 35 l0 35 -50 0 -50 0 0 -35 c0 -28 -4 -35 -20 -35
-19 0 -20 7 -20 90 0 83 1 90 20 90 16 0 20 -7 20 -35z m350 15 c0 -16 -7 -20
-35 -20 l-35 0 0 -70 c0 -63 -2 -70 -20 -70 -18 0 -20 7 -20 69 l0 70 -37 3
c-27 2 -39 8 -41 21 -3 15 6 17 92 17 89 0 96 -1 96 -20z m198 3 c-3 -15 -16
-19 -71 -21 -50 -2 -67 -7 -67 -17 0 -11 18 -15 73 -17 l72 -3 0 -50 0 -50
-92 -3 c-88 -3 -93 -2 -93 18 0 18 6 20 70 20 55 0 70 3 70 15 0 11 -16 15
-67 17 l-68 3 -3 53 -3 52 91 0 c82 0 91 -2 88 -17z m212 -73 l0 -91 -92 3
-93 3 -3 74 c-2 41 -1 80 2 88 4 9 29 13 96 13 l90 0 0 -90z m60 20 l0 -70 50
0 50 0 0 70 c0 68 1 70 25 70 l26 0 -3 -87 -3 -88 -92 -3 -93 -3 0 91 c0 83 1
90 20 90 18 0 20 -7 20 -70z m555 -20 l0 -85 -97 -3 -96 -3 0 91 0 91 96 -3
97 -3 0 -85z m195 69 c0 -19 -5 -20 -65 -17 -56 3 -65 1 -65 -14 0 -14 12 -18
68 -20 l67 -3 3 -52 3 -53 -95 0 c-89 0 -96 1 -96 20 0 18 7 20 75 20 61 0 73
3 69 15 -4 10 -25 15 -72 17 l-67 3 -3 39 c-5 64 -2 66 93 66 79 0 85 -1 85
-21z"/>
<path d="M1400 1733 l0 -53 50 0 50 0 0 49 0 49 -50 4 -50 3 0 -52z"/>
<path d="M1858 1783 l-48 -4 0 -50 0 -49 50 0 50 0 0 55 c0 30 -1 54 -2 53 -2
-1 -24 -3 -50 -5z"/>
<path d="M2020 1757 c0 -27 1 -28 48 -25 39 3 47 6 50 24 3 20 -2 22 -47 25
-50 4 -51 3 -51 -24z"/>
<path d="M2469 1783 c-43 -4 -46 -6 -41 -28 4 -22 10 -25 48 -25 42 0 44 1 44
30 0 17 -1 29 -2 28 -2 -1 -24 -3 -49 -5z"/>
<path d="M3520 1733 l0 -53 50 0 50 0 0 49 0 49 -50 4 -50 3 0 -52z"/>
<path d="M4178 1783 l-48 -4 0 -50 0 -49 50 0 50 0 0 55 c0 30 -1 54 -2 53 -2
-1 -24 -3 -50 -5z"/>
<path d="M1930 3649 c-32 -13 -78 -56 -96 -91 -11 -22 -14 -143 -16 -687 -3
-654 -3 -660 18 -688 11 -15 43 -40 70 -55 l50 -27 732 -7 732 -7 0 155 0 155
-617 8 c-340 4 -619 8 -619 9 -1 0 -3 210 -5 466 l-4 465 617 3 617 2 5 53 c3
28 7 98 8 155 l3 102 -735 -1 c-462 0 -744 -4 -760 -10z"/>
<path d="M3675 3641 c-49 -23 -79 -54 -101 -106 -14 -35 -16 -80 -15 -354 2
-339 3 -341 58 -393 61 -58 56 -58 641 -64 295 -3 538 -7 539 -8 1 -1 3 -71 5
-156 l3 -155 -618 0 -617 0 0 -157 0 -157 303 5 c166 2 501 6 745 8 502 6 485
3 532 87 l25 44 2 315 c1 205 -2 325 -9 345 -19 51 -59 96 -102 116 -38 17
-73 19 -482 19 -242 0 -489 3 -547 7 l-107 6 0 82 c0 45 3 117 7 160 l6 78
575 -7 575 -8 -6 78 c-4 42 -7 112 -7 156 l0 78 -682 0 c-643 0 -685 -2 -723
-19z"/>
</g>
</svg>
