<?xml version="1.0" encoding="UTF-8" standalone="no"?>
<svg
   xmlns:dc="http://purl.org/dc/elements/1.1/"
   xmlns:cc="http://creativecommons.org/ns#"
   xmlns:rdf="http://www.w3.org/1999/02/22-rdf-syntax-ns#"
   xmlns:svg="http://www.w3.org/2000/svg"
   xmlns="http://www.w3.org/2000/svg"
   viewBox="0 0 530 530"
   height="530"
   width="530"
   id="svg2355"
   version="1.1">
  <metadata
     id="metadata2361">
    <rdf:RDF>
      <cc:Work
         rdf:about="">
        <dc:format>image/svg+xml</dc:format>
        <dc:type
           rdf:resource="http://purl.org/dc/dcmitype/StillImage" />
        <dc:title />
      </cc:Work>
    </rdf:RDF>
  </metadata>
  <defs
     id="defs2359" />
  <g
     id="g2363">
    <path
       id="path2928"
       d="M 44.462898,254.96804 V 52.502042 H 257.86107 471.25922 V 254.96804 457.43403 H 257.86107 44.462898 Z m 411.496082,76.51963 c 0,-3.29714 -0.23445,-9.12857 -0.52101,-12.95872 l -0.52099,-6.96391 -185.49778,0.47769 -185.497772,0.4777 v -41.00056 c 0,-22.5503 0.19387,-41.00056 0.43082,-41.00056 0.36142,0 45.596252,33.29754 88.453412,65.1109 6.14628,4.56246 11.2979,8.17885 11.44803,8.03641 0.15013,-0.14243 0.0452,-28.3002 -0.23311,-62.57281 l -0.50606,-62.31385 -7.72087,-0.48514 c -4.24648,-0.26684 -10.83551,-0.48694 -14.6423,-0.48912 l -6.92145,-0.004 0.39139,34.09856 c 0.26046,22.69205 0.12053,34.00137 -0.41831,33.808 -0.44532,-0.15993 -22.80861,-16.44976 -49.69618,-36.19975 -26.887572,-19.74998 -49.222662,-36.02366 -49.633542,-36.16373 -0.45625,-0.15554 -0.74705,31.74153 -0.74705,81.94142 v 82.1961 H 255.0426 455.95898 Z m -309.72275,-2.78582 -5.54283,-4.19649 -0.24341,3.81448 c -0.20367,3.19197 -0.49936,3.81448 -1.81187,3.81448 -1.44535,0 -1.56847,-0.57485 -1.56847,-7.324 v -7.324 l 5.14716,3.8859 c 2.83094,2.13724 5.36756,3.8859 5.63693,3.8859 0.26938,0 0.48978,-1.54715 0.48978,-3.43811 0,-3.15795 0.16403,-3.4381 2.01319,-3.4381 2.00613,0 2.01319,0.0254 2.01319,7.25822 0,3.99202 -0.13294,7.25821 -0.29542,7.25821 -0.16249,0 -2.7897,-1.88842 -5.83825,-4.19649 z m 220.73974,0.37638 c -2.65741,-2.073 -5.10344,-3.78057 -5.43561,-3.7946 -0.33218,-0.0141 -0.60396,1.52163 -0.60396,3.41259 0,3.15796 -0.16404,3.4381 -2.01319,3.4381 -2.007,0 -2.01319,-0.0225 -2.01319,-7.30331 0,-5.64172 0.22901,-7.17173 1.00659,-6.725 0.55363,0.31806 3.27144,2.26069 6.03957,4.31696 l 5.03298,3.73865 v -3.88985 c 0,-3.38051 0.21089,-3.88986 1.61055,-3.88986 1.49753,0 1.61055,0.50935 1.61055,7.25822 0,3.99202 -0.0906,7.24673 -0.20131,7.2327 -0.11073,-0.0141 -2.37557,-1.7216 -5.03298,-3.7946 z m -213.46125,2.02956 c -0.22835,-0.56459 -0.30757,-3.57293 -0.17605,-6.68519 l 0.23914,-5.65868 7.44881,-0.21968 7.4488,-0.21967 v 6.90487 6.90488 h -7.27275 c -5.34552,0 -7.38279,-0.27202 -7.68795,-1.02653 z m 11.58036,-6.04068 -0.2434,-4.01112 -3.82506,-0.23286 -3.82506,-0.23287 v 4.24398 4.24399 h 4.06846 4.06847 z m 5.33044,6.04068 c -0.22835,-0.56459 -0.30758,-3.57293 -0.17605,-6.68519 l 0.23914,-5.65868 7.44881,-0.21968 c 6.2655,-0.18477 7.4488,-0.0331 7.4488,0.95503 0,0.94505 -1.10203,1.17471 -5.63693,1.17471 h -5.63693 v 4.20213 4.20212 h 5.63693 c 5.10008,0 5.63693,0.14553 5.63693,1.52804 0,1.41526 -0.53685,1.52805 -7.27275,1.52805 -5.34552,0 -7.38279,-0.27202 -7.68795,-1.02653 z m 16.57125,-5.84967 v -6.93355 l 7.44881,0.21967 7.4488,0.21968 v 6.4942 6.49419 l -7.4488,0.21968 -7.44881,0.21967 z m 11.27387,-0.42388 v -4.24398 l -3.82506,0.23287 -3.82506,0.23286 -0.24341,4.01112 -0.2434,4.01112 h 4.06846 4.06847 z m 4.83165,0.42388 v -6.87621 h 7.68856 7.68854 l -0.23974,4.77514 -0.23975,4.77515 -5.43561,0.22591 c -5.16948,0.21485 -5.43561,0.31773 -5.43561,2.10106 0,1.49081 -0.41264,1.87515 -2.0132,1.87515 -1.99827,0 -2.01319,-0.051 -2.01319,-6.8762 z m 11.93131,-2.10107 c -0.23334,-1.92409 -0.57698,-2.12067 -4.07986,-2.33392 -3.78203,-0.23025 -3.82506,-0.20661 -3.82506,2.10106 0,2.29544 0.0672,2.33393 4.07986,2.33393 3.97569,0 4.07336,-0.0536 3.82506,-2.10107 z m 10.61643,5.83254 c 0,-2.405 -0.67913,-4.0225 -2.88706,-6.87621 l -2.88705,-3.73147 h 2.02333 c 1.23925,0 2.68636,0.79973 3.73428,2.0637 l 1.71095,2.06368 1.79722,-2.13846 c 1.23836,-1.4735 2.37478,-2.05582 3.65459,-1.87269 1.82774,0.26154 1.81126,0.32291 -1.03391,3.84906 -2.22324,2.75537 -2.89125,4.29996 -2.89125,6.6852 0,2.59257 -0.26446,3.10192 -1.61055,3.10192 -1.34969,0 -1.61055,-0.50935 -1.61055,-3.14473 z m 10.46858,-3.73147 v -6.87621 h 7.65013 7.65012 v 4.53905 c 0,2.49647 -0.38206,4.76307 -0.84903,5.03689 -0.56348,0.33041 -0.42182,1.11646 0.4212,2.33716 1.23959,1.79494 1.21479,1.83931 -1.02808,1.83931 -1.62738,0 -2.61285,-0.5576 -3.37575,-1.91006 -0.86992,-1.54219 -1.68966,-1.91005 -4.25633,-1.91005 -2.9566,0 -3.15199,0.13356 -2.79406,1.91005 0.32262,1.60122 0.0774,1.91006 -1.51667,1.91006 -1.85766,0 -1.90153,-0.15862 -1.90153,-6.8762 z m 11.46735,-1.89211 c 0.4994,-2.47861 0.18412,-2.69203 -3.97671,-2.69203 -3.62953,0 -4.91838,1.11384 -3.97832,3.4381 0.31516,0.77923 1.6014,1.14604 4.01866,1.14604 3.14368,0 3.59926,-0.21899 3.93637,-1.89211 z m 5.44345,1.89211 c 0,-6.82527 0.0149,-6.87621 2.01319,-6.87621 1.99828,0 2.01319,0.051 2.01319,6.87621 0,6.82526 -0.0149,6.8762 -2.01319,6.8762 -1.99827,0 -2.01319,-0.051 -2.01319,-6.8762 z m 5.1712,5.84967 c -0.22835,-0.56459 -0.30757,-3.57293 -0.17605,-6.68519 l 0.23915,-5.65868 7.04616,-0.22074 c 6.3184,-0.19796 7.04635,-0.0796 7.04786,1.14603 0.002,1.19929 -0.63997,1.33539 -5.23429,1.11058 l -5.23599,-0.25619 v 4.26731 4.26732 h 4.02638 c 3.04216,0 4.02638,-0.28014 4.02638,-1.14603 0,-0.63669 -0.7158,-1.14604 -1.61055,-1.14604 -1.0887,0 -1.61055,-0.50935 -1.61055,-1.57197 0,-1.37689 0.42473,-1.54282 3.42242,-1.33704 3.10067,0.21284 3.44726,0.44113 3.68662,2.42831 0.14531,1.20636 0.0478,3.01137 -0.21666,4.01112 -0.46191,1.74609 -0.76691,1.81774 -7.73828,1.81774 -5.33267,0 -7.36753,-0.27224 -7.6726,-1.02653 z m 16.57126,-5.84967 c 0,-6.36686 0.1193,-6.87621 1.61055,-6.87621 1.30378,0 1.61055,0.50935 1.61055,2.67408 v 2.67408 h 4.02638 4.02638 v -2.67408 c 0,-2.343 0.24925,-2.67408 2.01319,-2.67408 1.99828,0 2.01319,0.051 2.01319,6.87621 0,6.82526 -0.0149,6.8762 -2.01319,6.8762 -1.76394,0 -2.01319,-0.33107 -2.01319,-2.67408 v -2.67408 h -4.02638 -4.02638 v 2.67408 c 0,2.16473 -0.30677,2.67408 -1.61055,2.67408 -1.49125,0 -1.61055,-0.50935 -1.61055,-6.8762 z m 22.38169,1.33704 -0.2366,-5.53917 -3.01979,-0.23713 c -1.97539,-0.15511 -3.01978,-0.61753 -3.01978,-1.33704 0,-0.88001 1.52943,-1.09991 7.65012,-1.09991 6.76499,0 7.65012,0.15556 7.65012,1.34443 0,1.00895 -0.65305,1.34258 -2.61714,1.33704 l -2.61715,-0.008 -0.2366,5.53916 c -0.20788,4.86723 -0.42348,5.53942 -1.77659,5.53942 -1.35311,0 -1.56871,-0.67219 -1.77659,-5.53916 z m 10.63463,4.03979 c 0,-1.41802 0.50224,-1.55672 5.63693,-1.55672 4.39504,0 5.63693,-0.24479 5.63693,-1.11113 0,-0.84009 -1.32585,-1.16623 -5.43561,-1.33704 l -5.43562,-0.22591 -0.2434,-4.01112 -0.2434,-4.01112 h 7.28957 c 5.84098,0 7.28957,0.22081 7.28957,1.11113 0,0.8399 -1.32482,1.16627 -5.42729,1.33704 -4.35778,0.18139 -5.47886,0.4826 -5.68899,1.52849 -0.22411,1.11555 0.58402,1.33494 5.62861,1.52804 l 5.8903,0.22547 v 3.82012 3.82011 l -7.4488,0.21968 c -7.03344,0.20742 -7.4488,0.13286 -7.4488,-1.33704 z m 16.44506,0.47284 c -0.22835,-0.56459 -0.30757,-3.57293 -0.17605,-6.68519 l 0.23915,-5.65868 7.4488,-0.21968 7.4488,-0.21967 v 6.90487 6.90488 h -7.27275 c -5.34552,0 -7.38279,-0.27202 -7.68795,-1.02653 z m 11.58036,-6.04068 -0.2434,-4.01112 -3.82506,-0.23286 -3.82506,-0.23287 v 4.24398 4.24399 h 4.06846 4.06847 z m 4.9909,0.21968 c 0,-6.39553 0.1188,-6.90488 1.61055,-6.90488 1.45716,0 1.61055,0.50935 1.61055,5.34816 v 5.34816 h 4.02638 4.02638 v -5.34816 c 0,-5.21722 0.0501,-5.34816 2.04454,-5.34816 h 2.04454 l -0.23268,6.6852 -0.23267,6.6852 -7.44879,0.21968 -7.4488,0.21967 z m 33.01631,-0.0287 v -6.93355 l 7.4488,0.21967 7.4488,0.21968 v 6.4942 6.49419 l -7.4488,0.21968 -7.4488,0.21967 z m 11.27386,-0.38201 v -4.20213 h -4.02638 -4.02638 v 4.20213 4.20212 h 4.02638 4.02638 z m 4.83166,5.75884 c 0,-1.42791 0.49977,-1.55672 6.03957,-1.55672 4.7509,0 6.03957,-0.23739 6.03957,-1.11256 0,-0.85112 -1.37192,-1.16531 -5.83825,-1.33704 l -5.83825,-0.22448 v -3.82011 -3.82012 l 7.04616,-0.22074 c 5.90643,-0.18505 7.04617,-0.0306 7.04617,0.95502 0,0.93776 -1.05958,1.17578 -5.2343,1.17578 -4.65665,0 -5.23429,0.16478 -5.23429,1.49314 0,1.31172 0.66044,1.52059 5.43561,1.71905 l 5.43562,0.22591 v 3.82012 3.82011 l -7.44881,0.21968 c -7.03344,0.20742 -7.4488,0.13286 -7.4488,-1.33704 z m -70.05901,-44.59944 v -11.7178 l -36.36963,-0.50656 c -20.00329,-0.27862 -42.47049,-0.50657 -49.92712,-0.50657 h -13.55749 l -0.003,-24.63973 c -0.002,-13.55185 -0.23917,-29.53902 -0.5279,-35.52705 l -0.52467,-10.88732 h 49.99443 49.99443 l 0.44442,-4.01112 c 0.24443,-2.20612 0.55145,-7.70708 0.68225,-12.22436 l 0.23782,-8.21325 h -59.1552 c -58.41295,0 -59.19897,0.0201 -62.64195,1.60143 -2.34056,1.075 -4.15398,2.68167 -5.51653,4.88757 l -2.02978,3.28615 -0.17334,50.34271 c -0.19504,56.64627 -0.64776,52.39476 6.02574,56.58803 l 3.3415,2.09963 21.80382,0.41155 c 11.99211,0.22635 38.92601,0.48421 59.85312,0.57301 l 38.0493,0.16147 z m 115.68801,10.47947 c 19.38443,-0.51677 20.57569,-0.84535 23.79358,-6.56294 1.79344,-3.18659 1.85083,-3.94031 2.07883,-27.30059 0.16943,-17.35971 -0.0338,-24.67131 -0.73266,-26.35878 -1.66112,-4.01097 -4.82088,-7.41132 -8.26637,-8.89583 -3.069,-1.32229 -5.85589,-1.42934 -37.61371,-1.44488 -18.86452,-0.009 -38.70451,-0.24152 -44.08887,-0.51621 l -9.78974,-0.49942 v -5.11337 c 0,-2.81236 0.23847,-8.3009 0.52994,-12.19677 l 0.52994,-7.08338 46.30386,0.56807 46.30386,0.56807 -0.53043,-7.08982 c -0.29173,-3.89941 -0.53042,-9.27178 -0.53042,-11.9386 v -4.84878 h -54.78464 c -47.62658,0 -55.17437,0.1545 -57.76756,1.1825 -3.85708,1.52904 -6.38277,3.80432 -8.44062,7.60376 -1.57998,2.91715 -1.64744,4.16472 -1.48393,27.44029 0.18459,26.27492 0.20399,26.40221 4.63324,30.39389 5.18174,4.66985 4.67451,4.62086 51.81087,5.0041 23.69525,0.19265 43.13253,0.40098 43.19395,0.46294 0.0614,0.062 0.37424,5.35577 0.69514,11.764 l 0.58345,11.65135 h -50.0183 -50.01828 v 12.09957 12.09956 l 43.28358,-0.26721 c 23.80597,-0.14696 50.95235,-0.47165 60.32529,-0.72152 z"
       style="fill:#000000;stroke-width:0.784378" />
  </g>
</svg>
