<?xml version="1.0" encoding="UTF-8" standalone="no"?>
<svg
   xmlns:dc="http://purl.org/dc/elements/1.1/"
   xmlns:cc="http://creativecommons.org/ns#"
   xmlns:rdf="http://www.w3.org/1999/02/22-rdf-syntax-ns#"
   xmlns:svg="http://www.w3.org/2000/svg"
   xmlns="http://www.w3.org/2000/svg"
   xmlns:sodipodi="http://sodipodi.sourceforge.net/DTD/sodipodi-0.dtd"
   xmlns:inkscape="http://www.inkscape.org/namespaces/inkscape"
   width="210mm"
   height="297mm"
   viewBox="0 0 210 297"
   version="1.1"
   id="svg8"
   inkscape:version="1.0.2 (394de47547, 2021-03-26)"
   sodipodi:docname="PIEZA .svg">
  <defs
     id="defs2" />
  <sodipodi:namedview
     id="base"
     pagecolor="#ffffff"
     bordercolor="#666666"
     borderopacity="1.0"
     inkscape:pageopacity="0.0"
     inkscape:pageshadow="2"
     inkscape:zoom="1.28"
     inkscape:cx="549.52112"
     inkscape:cy="493.22859"
     inkscape:document-units="mm"
     inkscape:current-layer="layer1"
     inkscape:document-rotation="0"
     showgrid="false"
     inkscape:window-width="1853"
     inkscape:window-height="1025"
     inkscape:window-x="67"
     inkscape:window-y="27"
     inkscape:window-maximized="1"
     showguides="true"
     inkscape:guide-bbox="true" />
  <metadata
     id="metadata5">
    <rdf:RDF>
      <cc:Work
         rdf:about="">
        <dc:format>image/svg+xml</dc:format>
        <dc:type
           rdf:resource="http://purl.org/dc/dcmitype/StillImage" />
        <dc:title></dc:title>
      </cc:Work>
    </rdf:RDF>
  </metadata>
  <g
     inkscape:label="Capa 1"
     inkscape:groupmode="layer"
     id="layer1">
    <g
       id="g927"
       transform="translate(4.8089943,-6.1738647)"
       style="fill:#000000;fill-opacity:0.996983">
      <path
         id="rect833"
         style="opacity:0.763817;fill:none;fill-opacity:0.996983;fill-rule:evenodd;stroke:#ff0000;stroke-width:0.374173;stroke-opacity:0.999927"
         d="M 286.87695 183.32227 C 247.32033 183.32227 215.47461 215.16799 215.47461 254.72461 L 215.47461 562.18164 C 215.47461 600.84342 245.90028 632.12145 284.20898 633.51758 L 284.20898 715.8418 L 593.73633 715.8418 L 593.73633 633.58398 L 594.33398 633.58398 C 633.89061 633.58398 665.73633 601.73826 665.73633 562.18164 L 665.73633 254.72461 C 665.73633 215.16799 633.89061 183.32227 594.33398 183.32227 L 286.87695 183.32227 z "
         transform="matrix(0.26458333,0,0,0.26458333,-4.8089943,6.1738647)" />
    </g>
    <path
       style="fill:#000000;stroke-width:0.264583"
       id="path2096"
       d="" />
    <path
       style="fill:#000000;stroke-width:0.264583"
       id="path2094"
       d="" />
    <path
       style="fill:#000000;stroke-width:0.264583"
       id="path2092"
       d="" />
    <text
       xml:space="preserve"
       style="font-style:normal;font-weight:normal;font-size:16.0793px;line-height:1.25;font-family:sans-serif;fill:#000000;fill-opacity:1;stroke:none;stroke-width:0.401982"
       x="107.34277"
       y="79.660599"
       id="text7064"
       transform="scale(0.90326185,1.1070987)"><tspan
         sodipodi:role="line"
         id="tspan7062"
         x="107.34277"
         y="79.660599"
         style="font-style:normal;font-variant:normal;font-weight:normal;font-stretch:normal;font-family:Ani;-inkscape-font-specification:Ani;stroke-width:0.401982">MARC</tspan></text>
    <path
       style="fill:#000000;stroke-width:0.111993"
       d="M 85.48583,125.90267 V 97.092187 h 30.57179 30.57179 v 28.810483 28.81048 H 116.05762 85.48583 Z m 58.95164,10.88858 c 0,-0.46917 -0.0336,-1.29897 -0.0746,-1.844 l -0.0746,-0.99095 -26.57474,0.068 -26.574733,0.068 v -5.83429 c 0,-3.20886 0.02778,-5.83429 0.06172,-5.83429 0.05177,0 6.532198,4.73817 12.671993,9.26514 0.88052,0.64923 1.61855,1.16384 1.64006,1.14357 0.0215,-0.0203 0.007,-4.02706 -0.0334,-8.90398 l -0.0725,-8.86713 -1.10611,-0.069 c -0.60835,-0.038 -1.55231,-0.0693 -2.09768,-0.0696 l -0.99158,-5.3e-4 0.0561,4.85215 c 0.0373,3.22903 0.0173,4.83832 -0.0599,4.8108 -0.0638,-0.0228 -3.267596,-2.34076 -7.119556,-5.15114 -3.85196,-2.81038 -7.051724,-5.12609 -7.110588,-5.14603 -0.06536,-0.0222 -0.107023,4.51676 -0.107023,11.6601 v 11.69633 h 28.783637 28.78362 z m -44.37142,-0.39642 -0.794072,-0.59715 -0.03487,0.5428 c -0.02918,0.45421 -0.07154,0.54279 -0.259572,0.54279 -0.207063,0 -0.224701,-0.0818 -0.224701,-1.04219 v -1.04219 l 0.737391,0.55296 c 0.405566,0.30412 0.768964,0.55295 0.807554,0.55295 0.0386,0 0.0702,-0.22016 0.0702,-0.48924 0,-0.44937 0.0235,-0.48923 0.28841,-0.48923 0.28741,0 0.28842,0.004 0.28842,1.03283 0,0.56805 -0.019,1.03283 -0.0423,1.03283 -0.0233,0 -0.39966,-0.26872 -0.8364,-0.59716 z m 31.62356,0.0536 c -0.3807,-0.29498 -0.73112,-0.53797 -0.77871,-0.53996 -0.0476,-0.002 -0.0865,0.21652 -0.0865,0.4856 0,0.44937 -0.0235,0.48924 -0.28841,0.48924 -0.28752,0 -0.28841,-0.003 -0.28841,-1.03925 0,-0.8028 0.0328,-1.02052 0.14421,-0.95695 0.0793,0.0453 0.46867,0.32169 0.86523,0.61429 l 0.72104,0.532 v -0.55352 c 0,-0.48104 0.0302,-0.55351 0.23072,-0.55351 0.21455,0 0.23074,0.0725 0.23074,1.03282 0,0.56806 -0.013,1.0312 -0.0289,1.0292 -0.0159,-0.002 -0.34033,-0.24498 -0.72104,-0.53996 z m -30.58083,0.2888 c -0.0327,-0.0803 -0.0441,-0.50842 -0.0252,-0.95129 l 0.0343,-0.80522 1.06713,-0.0312 1.06713,-0.0312 v 0.98255 0.98255 h -1.04191 c -0.7658,0 -1.05767,-0.0387 -1.10139,-0.14608 z m 1.65903,-0.85958 -0.0349,-0.57077 -0.54799,-0.0331 -0.54798,-0.0331 v 0.60392 0.60391 h 0.58285 0.58286 z m 0.76364,0.85958 c -0.0327,-0.0803 -0.0441,-0.50842 -0.0252,-0.95129 l 0.0343,-0.80522 1.06713,-0.0312 c 0.89761,-0.0263 1.06713,-0.005 1.06713,0.13589 0,0.13448 -0.15788,0.16716 -0.80756,0.16716 h -0.80755 v 0.59796 0.59795 h 0.80755 c 0.73065,0 0.80756,0.0207 0.80756,0.21744 0,0.20139 -0.0769,0.21744 -1.04191,0.21744 -0.7658,0 -1.05767,-0.0387 -1.10138,-0.14608 z m 2.37403,-0.83239 v -0.98663 l 1.06713,0.0312 1.06713,0.0312 v 0.92411 0.92411 l -1.06713,0.0312 -1.06713,0.0312 z m 1.61511,-0.0603 v -0.60391 l -0.54798,0.0331 -0.54799,0.0331 -0.0349,0.57077 -0.0349,0.57077 h 0.58286 0.58286 z m 0.69219,0.0603 v -0.97847 h 1.10148 1.10147 l -0.0343,0.67949 -0.0343,0.67949 -0.77871,0.0322 c -0.74059,0.0305 -0.77872,0.0452 -0.77872,0.29897 0,0.21214 -0.0591,0.26683 -0.28841,0.26683 -0.28628,0 -0.28842,-0.007 -0.28842,-0.97847 z m 1.7093,-0.29898 c -0.0334,-0.2738 -0.0827,-0.30177 -0.58448,-0.33211 -0.54182,-0.0327 -0.54799,-0.0294 -0.54799,0.29897 0,0.32664 0.01,0.33212 0.58449,0.33212 0.56956,0 0.58356,-0.008 0.54798,-0.29898 z m 1.52093,0.82995 c 0,-0.34222 -0.0973,-0.57239 -0.4136,-0.97847 l -0.41361,-0.53097 h 0.28987 c 0.17754,0 0.38485,0.11379 0.53498,0.29366 l 0.24511,0.29365 0.25747,-0.3043 c 0.17741,-0.20967 0.34022,-0.29253 0.52357,-0.26648 0.26185,0.0372 0.25948,0.0459 -0.14812,0.54772 -0.31851,0.39208 -0.41421,0.61188 -0.41421,0.95129 0,0.36891 -0.0379,0.4414 -0.23073,0.4414 -0.19336,0 -0.23073,-0.0725 -0.23073,-0.4475 z m 1.49975,-0.53097 v -0.97847 h 1.09597 1.09597 v 0.6459 c 0,0.35524 -0.0547,0.67777 -0.12163,0.71673 -0.0807,0.047 -0.0604,0.15887 0.0603,0.33258 0.17758,0.25541 0.17403,0.26173 -0.14729,0.26173 -0.23314,0 -0.37432,-0.0794 -0.48361,-0.2718 -0.12463,-0.21945 -0.24206,-0.2718 -0.60977,-0.2718 -0.42357,0 -0.45156,0.019 -0.40028,0.2718 0.0462,0.22785 0.0111,0.2718 -0.21729,0.2718 -0.26613,0 -0.27241,-0.0226 -0.27241,-0.97847 z m 1.64283,-0.26925 c 0.0715,-0.3527 0.0264,-0.38307 -0.56971,-0.38307 -0.51997,0 -0.70462,0.1585 -0.56994,0.48924 0.0452,0.11088 0.22942,0.16308 0.57572,0.16308 0.45037,0 0.51564,-0.0311 0.56393,-0.26925 z m 0.77984,0.26925 c 0,-0.97122 0.002,-0.97847 0.28841,-0.97847 0.28628,0 0.28842,0.007 0.28842,0.97847 0,0.97122 -0.002,0.97847 -0.28842,0.97847 -0.28627,0 -0.28841,-0.007 -0.28841,-0.97847 z m 0.74084,0.83239 c -0.0327,-0.0803 -0.0441,-0.50842 -0.0252,-0.95129 l 0.0343,-0.80522 1.00944,-0.0314 c 0.90519,-0.0282 1.00947,-0.0113 1.00969,0.16308 2.9e-4,0.17066 -0.0917,0.19002 -0.74987,0.15804 l -0.75012,-0.0365 v 0.60723 0.60723 h 0.57683 c 0.43582,0 0.57682,-0.0399 0.57682,-0.16308 0,-0.0906 -0.10254,-0.16308 -0.23073,-0.16308 -0.15597,0 -0.23073,-0.0725 -0.23073,-0.22368 0,-0.19594 0.0609,-0.21955 0.4903,-0.19026 0.44421,0.0303 0.49386,0.0628 0.52816,0.34554 0.0208,0.17166 0.007,0.42851 -0.031,0.57077 -0.0662,0.24847 -0.10987,0.25867 -1.1086,0.25867 -0.76397,0 -1.05549,-0.0387 -1.09919,-0.14608 z m 2.37403,-0.83239 c 0,-0.906 0.0171,-0.97847 0.23072,-0.97847 0.18679,0 0.23073,0.0725 0.23073,0.38051 v 0.38052 h 0.57683 0.57682 v -0.38052 c 0,-0.3334 0.0357,-0.38051 0.28842,-0.38051 0.28628,0 0.28841,0.007 0.28841,0.97847 0,0.97122 -0.002,0.97847 -0.28841,0.97847 -0.25271,0 -0.28842,-0.0471 -0.28842,-0.38052 v -0.38052 h -0.57682 -0.57683 v 0.38052 c 0,0.30803 -0.044,0.38052 -0.23073,0.38052 -0.21364,0 -0.23072,-0.0725 -0.23072,-0.97847 z m 3.20643,0.19025 -0.0339,-0.78821 -0.43262,-0.0337 c -0.28299,-0.0221 -0.43262,-0.0879 -0.43262,-0.19026 0,-0.12522 0.21911,-0.15651 1.09597,-0.15651 0.96917,0 1.09597,0.0222 1.09597,0.19131 0,0.14357 -0.0936,0.19104 -0.37494,0.19025 l -0.37493,-0.001 -0.0339,0.78821 c -0.0298,0.6926 -0.0607,0.78825 -0.25452,0.78825 -0.19385,0 -0.22474,-0.0957 -0.25452,-0.78821 z m 1.52354,0.57486 c 0,-0.20179 0.072,-0.22152 0.80755,-0.22152 0.62965,0 0.80756,-0.0349 0.80756,-0.15811 0,-0.11954 -0.18994,-0.16595 -0.77871,-0.19026 l -0.77872,-0.0322 -0.0349,-0.57078 -0.0349,-0.57077 h 1.04432 c 0.83679,0 1.04431,0.0314 1.04431,0.15811 0,0.11952 -0.18979,0.16596 -0.77752,0.19026 -0.62431,0.0258 -0.78491,0.0687 -0.81501,0.2175 -0.0321,0.15874 0.0837,0.18996 0.80636,0.21744 l 0.84385,0.0321 v 0.5436 0.54359 l -1.06712,0.0312 c -1.00763,0.0295 -1.06713,0.0189 -1.06713,-0.19026 z m 2.35594,0.0673 c -0.0327,-0.0803 -0.0441,-0.50842 -0.0252,-0.95129 l 0.0343,-0.80522 1.06714,-0.0312 1.06712,-0.0312 v 0.98255 0.98255 h -1.0419 c -0.76582,0 -1.05768,-0.0387 -1.1014,-0.14608 z m 1.65903,-0.85958 -0.0349,-0.57077 -0.54798,-0.0331 -0.54799,-0.0331 v 0.60392 0.60391 h 0.58286 0.58285 z m 0.715,0.0312 c 0,-0.91007 0.017,-0.98255 0.23074,-0.98255 0.20875,0 0.23072,0.0725 0.23072,0.76103 v 0.76103 h 0.57683 0.57683 v -0.76103 c 0,-0.7424 0.007,-0.76103 0.2929,-0.76103 h 0.29291 l -0.0334,0.95129 -0.0333,0.95129 -1.06713,0.0312 -1.06713,0.0312 z m 4.72998,-0.004 v -0.98663 l 1.06712,0.0312 1.06713,0.0312 v 0.92411 0.92411 l -1.06713,0.0312 -1.06712,0.0312 z m 1.61511,-0.0544 v -0.59796 h -0.57682 -0.57683 v 0.59796 0.59795 h 0.57683 0.57682 z m 0.69219,0.81947 c 0,-0.20319 0.0716,-0.22152 0.86524,-0.22152 0.68063,0 0.86524,-0.0338 0.86524,-0.15831 0,-0.12111 -0.19654,-0.16582 -0.8364,-0.19026 l -0.83639,-0.0319 v -0.5436 -0.54359 l 1.00944,-0.0314 c 0.84617,-0.0263 1.00945,-0.004 1.00945,0.13589 0,0.13345 -0.1518,0.16731 -0.74988,0.16731 -0.66711,0 -0.74987,0.0234 -0.74987,0.21248 0,0.18665 0.0946,0.21638 0.77871,0.24462 l 0.77872,0.0322 v 0.54359 0.5436 l -1.06713,0.0312 c -1.00762,0.0295 -1.06713,0.0189 -1.06713,-0.19026 z m -10.03677,-6.34641 v -1.66741 l -5.21038,-0.0721 c -2.8657,-0.0396 -6.0844,-0.0721 -7.15265,-0.0721 h -1.94227 l -4.3e-4,-3.50618 c -2.8e-4,-1.9284 -0.0343,-4.20334 -0.0756,-5.05543 l -0.0752,-1.54924 h 7.16229 7.16229 l 0.0637,-0.57077 c 0.035,-0.31393 0.079,-1.0967 0.0977,-1.7395 l 0.0341,-1.16873 h -8.47466 c -8.36835,0 -8.48095,0.003 -8.9742,0.22788 -0.33531,0.15297 -0.5951,0.3816 -0.79031,0.69549 l -0.29079,0.46762 -0.0248,7.16366 c -0.0279,8.06064 -0.0928,7.45566 0.86326,8.05235 l 0.47871,0.29877 3.12365,0.0586 c 1.71801,0.0322 5.57661,0.0689 8.57467,0.0815 l 5.451,0.023 z m 16.57366,1.49121 c 2.77705,-0.0735 2.94771,-0.12029 3.40871,-0.93389 0.25693,-0.45345 0.26515,-0.5607 0.29782,-3.88482 0.0243,-2.47025 -0.005,-3.51067 -0.10496,-3.75079 -0.23798,-0.57076 -0.69065,-1.05462 -1.18426,-1.26586 -0.43967,-0.18816 -0.83892,-0.20339 -5.3886,-0.2056 -2.70257,-0.001 -5.54488,-0.0344 -6.31625,-0.0735 l -1.4025,-0.0711 v -0.72762 c 0,-0.40019 0.0342,-1.1812 0.0759,-1.73558 l 0.0759,-1.00794 6.63358,0.0808 6.63357,0.0808 -0.076,-1.00886 c -0.0418,-0.55488 -0.076,-1.31935 -0.076,-1.69884 v -0.68997 h -7.84855 c -6.82306,0 -7.90437,0.022 -8.27588,0.16827 -0.55257,0.21758 -0.9144,0.54134 -1.20921,1.082 -0.22635,0.4151 -0.23602,0.59263 -0.2126,3.90469 0.0264,3.73887 0.0292,3.75698 0.66377,4.32499 0.74235,0.66451 0.66968,0.65753 7.42252,0.71207 3.39462,0.0274 6.17924,0.0571 6.18804,0.0659 0.009,0.009 0.0536,0.76211 0.0996,1.67399 l 0.0836,1.65796 h -7.16571 -7.1657 v 1.72175 1.72174 l 6.20088,-0.038 c 3.41048,-0.0209 7.29952,-0.0671 8.6423,-0.10267 z"
       id="path2928" />
  </g>
</svg>
